<svg width="10" height="8" viewBox="0 0 10 8" fill="none" xmlns="http://www.w3.org/2000/svg">
<path fill-rule="evenodd" clip-rule="evenodd" d="M9.16248 0.670854C9.39029 0.89866 9.39029 1.26801 9.16248 1.49581L3.32915 7.32915C3.10134 7.55695 2.73199 7.55695 2.50419 7.32915L0.170854 4.99581C-0.0569515 4.76801 -0.0569515 4.39866 0.170854 4.17085C0.39866 3.94305 0.768007 3.94305 0.995812 4.17085L2.91667 6.09171L8.33752 0.670854C8.56533 0.443049 8.93467 0.443049 9.16248 0.670854Z" fill="#0D9488"/>
<path fill-rule="evenodd" clip-rule="evenodd" d="M9.16248 0.670854C9.39029 0.89866 9.39029 1.26801 9.16248 1.49581L3.32915 7.32915C3.10134 7.55695 2.73199 7.55695 2.50419 7.32915L0.170854 4.99581C-0.0569515 4.76801 -0.0569515 4.39866 0.170854 4.17085C0.39866 3.94305 0.768007 3.94305 0.995812 4.17085L2.91667 6.09171L8.33752 0.670854C8.56533 0.443049 8.93467 0.443049 9.16248 0.670854Z" fill="black" fill-opacity="0.2"/>
</svg>
