<svg width="13" height="12" viewBox="0 0 13 12" fill="none" xmlns="http://www.w3.org/2000/svg">
<path fill-rule="evenodd" clip-rule="evenodd" d="M6.66658 1.33366C4.08926 1.33366 1.99992 3.423 1.99992 6.00033C1.99992 8.57765 4.08926 10.667 6.66658 10.667C9.24391 10.667 11.3333 8.57765 11.3333 6.00033C11.3333 3.423 9.24391 1.33366 6.66658 1.33366ZM0.833252 6.00033C0.833252 2.77866 3.44492 0.166992 6.66658 0.166992C9.88825 0.166992 12.4999 2.77866 12.4999 6.00033C12.4999 9.22199 9.88825 11.8337 6.66658 11.8337C3.44492 11.8337 0.833252 9.22199 0.833252 6.00033ZM6.66658 3.08366C6.98875 3.08366 7.24992 3.34483 7.24992 3.66699V6.00033C7.24992 6.32249 6.98875 6.58366 6.66658 6.58366C6.34442 6.58366 6.08325 6.32249 6.08325 6.00033V3.66699C6.08325 3.34483 6.34442 3.08366 6.66658 3.08366ZM6.08325 8.33366C6.08325 8.01149 6.34442 7.75033 6.66658 7.75033H6.67242C6.99459 7.75033 7.25575 8.01149 7.25575 8.33366C7.25575 8.65582 6.99459 8.91699 6.67242 8.91699H6.66658C6.34442 8.91699 6.08325 8.65582 6.08325 8.33366Z" fill="#E11D48"/>
<path fill-rule="evenodd" clip-rule="evenodd" d="M6.66658 1.33366C4.08926 1.33366 1.99992 3.423 1.99992 6.00033C1.99992 8.57765 4.08926 10.667 6.66658 10.667C9.24391 10.667 11.3333 8.57765 11.3333 6.00033C11.3333 3.423 9.24391 1.33366 6.66658 1.33366ZM0.833252 6.00033C0.833252 2.77866 3.44492 0.166992 6.66658 0.166992C9.88825 0.166992 12.4999 2.77866 12.4999 6.00033C12.4999 9.22199 9.88825 11.8337 6.66658 11.8337C3.44492 11.8337 0.833252 9.22199 0.833252 6.00033ZM6.66658 3.08366C6.98875 3.08366 7.24992 3.34483 7.24992 3.66699V6.00033C7.24992 6.32249 6.98875 6.58366 6.66658 6.58366C6.34442 6.58366 6.08325 6.32249 6.08325 6.00033V3.66699C6.08325 3.34483 6.34442 3.08366 6.66658 3.08366ZM6.08325 8.33366C6.08325 8.01149 6.34442 7.75033 6.66658 7.75033H6.67242C6.99459 7.75033 7.25575 8.01149 7.25575 8.33366C7.25575 8.65582 6.99459 8.91699 6.67242 8.91699H6.66658C6.34442 8.91699 6.08325 8.65582 6.08325 8.33366Z" fill="black" fill-opacity="0.2"/>
</svg>
