<svg width="184" height="81" viewBox="0 0 184 81" fill="none" xmlns="http://www.w3.org/2000/svg">
<path d="M28.0222 0.384766V4.89469H17.4403V30.2464H11.6749V4.89469H1.08102V0.384766H28.0222Z" fill="white"/>
<path d="M51.6723 0.384766V4.89469H38.1597V12.748H51.0958V17.2579H38.1597V25.7365H51.9726V30.2464H32.3943V0.384766H51.6723Z" fill="white"/>
<path d="M66.0017 0.000246895C68.9439 0.00755359 71.8364 0.76056 74.4096 2.18907V7.31234C71.9713 5.65788 69.1338 4.69006 66.1939 4.51017C65.0006 4.44335 63.8152 4.74114 62.7947 5.36406C62.4166 5.60212 62.107 5.93473 61.8964 6.32909C61.6857 6.72346 61.5814 7.16595 61.5936 7.613C61.5936 8.74348 62.3623 9.77775 63.8877 10.7399C64.3081 11.0165 65.9537 11.8222 68.8123 13.1452C70.8559 13.9927 72.6707 15.3113 74.1093 16.9936C75.209 18.4569 75.7806 20.2503 75.7308 22.0808C75.769 23.2571 75.5402 24.4266 75.0617 25.5015C74.5832 26.5764 73.8674 27.5286 72.9682 28.2865C70.9427 29.9476 68.3773 30.8039 65.7615 30.6918C64.1022 30.7258 62.4469 30.5151 60.8489 30.0664C59.2241 29.5335 57.671 28.8024 56.2246 27.8896V22.2131C59.4276 24.8589 62.4304 26.1818 65.233 26.1818C66.4374 26.2403 67.6299 25.9208 68.6442 25.2678C69.0474 25.0101 69.3789 24.6544 69.6078 24.2338C69.8367 23.8132 69.9556 23.3415 69.9534 22.8626C69.9272 22.1434 69.7008 21.4458 69.2996 20.8487C68.8985 20.2515 68.3386 19.7786 67.6833 19.4831C66.4341 18.8016 64.8326 17.9999 62.8788 17.0778C60.8642 16.2474 59.065 14.9683 57.6179 13.3376C56.4677 11.9457 55.8502 10.1891 55.8762 8.38269C55.8343 7.23016 56.0661 6.08411 56.5526 5.03875C57.0391 3.99339 57.7665 3.07856 58.6749 2.36946C60.7716 0.758096 63.3597 -0.078816 66.0017 0.000246895Z" fill="white"/>
<path d="M104.618 0.384766V4.89469H94.0359V30.2464H88.2705V4.89469H77.6766V0.384766H104.618Z" fill="white"/>
<path d="M53.4139 45.4002C56.3561 45.4081 59.2484 46.161 61.8218 47.589V52.7123C59.3836 51.0579 56.546 50.09 53.6061 49.9101C52.4094 49.8476 51.2214 50.145 50.1949 50.764C49.8185 51.0038 49.5101 51.3368 49.2997 51.7307C49.0893 52.1247 48.984 52.5664 48.9938 53.013C48.9938 54.1435 49.7505 55.1777 51.2759 56.1398C51.7083 56.4164 53.3539 57.2222 56.2125 58.5451C58.2528 59.3923 60.0639 60.7111 61.4975 62.3936C62.5972 63.8568 63.1688 65.6502 63.119 67.4808C63.1598 68.6574 62.9323 69.8278 62.4536 70.9031C61.9749 71.9784 61.2577 72.9303 60.3564 73.6864C58.3321 75.3496 55.7658 76.2061 53.1497 76.0917C51.4864 76.1257 49.8272 75.915 48.2251 75.4664C46.6052 74.9308 45.0563 74.1998 43.6128 73.2896V67.6131C46.8158 70.2589 49.8186 71.5818 52.6212 71.5818C53.8256 71.6403 55.0181 71.3207 56.0324 70.6678C56.4318 70.407 56.7597 70.0504 56.9863 69.6303C57.2129 69.2102 57.3309 68.74 57.3296 68.2625C57.3058 67.5443 57.0817 66.8471 56.6827 66.2498C56.2836 65.6526 55.7254 65.1791 55.0715 64.8831C53.8703 64.2096 52.2008 63.3798 50.267 62.4778C48.2482 61.6549 46.4474 60.3747 45.0061 58.7376C43.854 57.3467 43.2363 55.5894 43.2644 53.7827C43.2201 52.631 43.4496 51.4853 43.9341 50.4399C44.4185 49.3944 45.1441 48.4791 46.051 47.7694C48.1593 46.1537 50.7603 45.3168 53.4139 45.4002Z" fill="white"/>
<path d="M83.7783 45.4001C85.4527 45.3979 87.1215 45.5917 88.7509 45.9774C90.5687 46.4365 92.3293 47.098 93.9999 47.9497V53.3737C92.3924 52.4248 90.6843 51.6584 88.9071 51.0887C87.3246 50.6177 85.6814 50.3827 84.0305 50.3911C82.0392 50.3585 80.0695 50.8082 78.2892 51.702C76.6352 52.532 75.2519 53.8169 74.3015 55.4062C73.3557 57.0207 72.8658 58.8622 72.8841 60.7339C72.8537 62.6184 73.3442 64.4747 74.3015 66.0977C75.2413 67.6779 76.6179 68.9519 78.2652 69.7657C80.0595 70.6417 82.0345 71.0826 84.0305 71.0526C85.6195 71.0634 87.2003 70.8239 88.7149 70.343C90.6627 69.6722 92.5445 68.8228 94.3362 67.8054V73.2294C92.6433 74.1357 90.8545 74.8497 89.0032 75.358C87.1436 75.8081 85.2348 76.0223 83.3219 75.9954C80.4109 76.0404 77.5304 75.3976 74.914 74.1193C72.4885 72.9099 70.462 71.0269 69.0766 68.6954C67.6646 66.3609 66.9285 63.6794 66.9506 60.9503C66.9104 58.0956 67.672 55.2869 69.1486 52.8445C70.5854 50.467 72.6685 48.5482 75.1543 47.3123C77.836 45.9968 80.7926 45.3412 83.7783 45.4001Z" fill="white"/>
<path d="M147.005 45.7851C149.498 45.6809 151.94 46.513 153.852 48.1182C154.71 48.8626 155.392 49.7877 155.851 50.8273C156.31 51.8669 156.534 52.9952 156.506 54.1315C156.538 55.7124 156.076 57.2639 155.185 58.5692C154.201 59.9169 152.85 60.9523 151.293 61.5518C152.27 62.0775 153.134 62.7882 153.84 63.6444C154.9 65.0384 155.821 66.5328 156.59 68.1062C158.416 71.7141 159.761 74.2277 160.65 75.5867H154.224C153.568 74.5731 152.967 73.5253 152.422 72.4477C151.339 70.2432 150.136 68.0993 148.819 66.0256C148.238 65.0896 147.484 64.2732 146.597 63.6203C145.879 63.1653 145.045 62.9273 144.195 62.9348H142.105V75.5385H136.339V45.7851H147.005ZM145.708 58.5211C146.99 58.5945 148.253 58.1872 149.252 57.3786C149.685 56.9936 150.027 56.516 150.251 55.981C150.476 55.4461 150.578 54.8674 150.549 54.2878C150.591 53.7114 150.497 53.1331 150.273 52.6002C150.05 52.0672 149.704 51.5947 149.264 51.221C148.209 50.4883 146.941 50.1285 145.66 50.1988H142.057V58.5211H145.708Z" fill="white"/>
<path d="M183.7 45.7852V50.2951H170.187V58.1484H183.123V62.6583H170.187V71.1369H184V75.6468H164.422V45.7852H183.7Z" fill="white"/>
<path fill-rule="evenodd" clip-rule="evenodd" d="M15.8308 59.5074C16.6072 59.0477 17.3182 58.4854 17.9448 57.8357C18.2003 57.5756 18.4019 57.2674 18.538 56.9289C18.674 56.5904 18.7418 56.2283 18.7375 55.8634C18.7468 55.5372 18.6863 55.2128 18.5599 54.912C18.4335 54.6112 18.2442 54.341 18.0048 54.1195C17.7519 53.8846 17.4551 53.7021 17.1315 53.5824C16.8079 53.4627 16.4638 53.4082 16.1191 53.422C15.4668 53.4084 14.8315 53.6304 14.3294 54.0474C14.0885 54.2347 13.8946 54.4758 13.7632 54.7514C13.6318 55.027 13.5666 55.3296 13.5727 55.6349C13.6195 56.3365 13.8516 57.013 14.2453 57.5952C14.6812 58.3042 15.215 58.948 15.8308 59.5074Z" fill="white"/>
<path fill-rule="evenodd" clip-rule="evenodd" d="M11.4827 66.7233C10.9115 67.2905 10.5839 68.0586 10.5699 68.864C10.5637 69.2567 10.6445 69.6458 10.8065 70.0035C10.9685 70.3612 11.2077 70.6785 11.5068 70.9325C12.1218 71.4881 12.9246 71.789 13.7529 71.7744C15.5086 71.6473 17.1613 70.8967 18.4132 69.6577L14.0171 64.7148C13.0934 65.2779 12.2422 65.9525 11.4827 66.7233Z" fill="white"/>
<path fill-rule="evenodd" clip-rule="evenodd" d="M27.3616 44.5459H8.04753C5.91319 44.5459 3.86628 45.3948 2.35707 46.9059C0.847869 48.4171 8.96445e-06 50.4666 8.96445e-06 52.6036V71.9422C-0.00156988 73.0013 0.20542 74.0504 0.609139 75.0294C1.01286 76.0084 1.60538 76.8981 2.35282 77.6476C3.10026 78.3971 3.98795 78.9917 4.9651 79.3974C5.94226 79.8031 6.9897 80.0119 8.04753 80.0119H27.3616C28.4194 80.0119 29.4669 79.8031 30.444 79.3974C31.4212 78.9917 32.3089 78.3971 33.0563 77.6476C33.8037 76.8981 34.3963 76.0084 34.8 75.0294C35.2037 74.0504 35.4107 73.0013 35.4091 71.9422V52.6036C35.4091 50.4666 34.5613 48.4171 33.052 46.9059C31.5428 45.3948 29.4959 44.5459 27.3616 44.5459ZM23.3859 75.3577L20.9836 72.6638C19.8607 73.6252 18.5967 74.4081 17.2361 74.9849C15.8541 75.482 14.3921 75.7185 12.9241 75.6824C11.0111 75.7361 9.14727 75.0711 7.69921 73.8183C7.02613 73.2589 6.48607 72.5562 6.11831 71.7615C5.75054 70.9668 5.56433 70.1 5.57322 69.2242C5.57103 67.7358 6.11373 66.2982 7.09865 65.1833C8.33749 63.8229 9.81537 62.7018 11.4587 61.876C10.6832 60.9398 10.0219 59.9143 9.48888 58.8213C9.0898 57.9494 8.88096 57.0023 8.87631 56.0432C8.84783 55.178 9.01696 54.3176 9.37081 53.5277C9.72467 52.7378 10.2539 52.0392 10.9182 51.4852C12.3855 50.2774 14.2452 49.6524 16.1431 49.7293C17.9256 49.6327 19.6818 50.1931 21.0797 51.3048C21.7048 51.8179 22.2049 52.4669 22.5421 53.2025C22.8792 53.9381 23.0446 54.741 23.0255 55.5501C23.0152 56.8126 22.5934 58.0372 21.8244 59.0378C20.8319 60.3154 19.6098 61.3963 18.221 62.2248L21.7403 66.3018C22.9011 65.1015 23.8658 63.7256 24.599 62.2248H29.2594C28.1924 64.9207 26.5953 67.3746 24.563 69.4406L29.7879 75.3577H23.3859Z" fill="white"/>
<path fill-rule="evenodd" clip-rule="evenodd" d="M127.884 53.53C128.224 53.1584 128.404 52.6665 128.382 52.1624C128.361 51.6583 128.141 51.1834 127.769 50.8421C127.398 50.5008 126.907 50.3211 126.404 50.3425C125.9 50.364 125.426 50.5847 125.085 50.9563L115.884 61.0105L110.623 56.5006C110.241 56.172 109.744 56.009 109.242 56.0473C108.74 56.0857 108.273 56.3222 107.945 56.705C107.617 57.0877 107.454 57.5853 107.492 58.0883C107.531 58.5912 107.767 59.0584 108.149 59.3869L114.791 65.0874C115.163 65.4104 115.647 65.5748 116.138 65.5456C116.63 65.5164 117.09 65.2958 117.422 64.9311L127.884 53.53Z" fill="white"/>
<path fill-rule="evenodd" clip-rule="evenodd" d="M115.164 75.105H114.563C110.609 74.7958 106.931 72.9584 104.307 69.9816C101.682 67.0048 100.318 63.1223 100.502 59.1558C100.686 55.1894 102.404 51.4503 105.293 48.7302C108.182 46.01 112.015 44.5223 115.98 44.5818H116.581C118.931 44.73 121.214 45.426 123.247 46.6143C123.467 46.7402 123.66 46.9083 123.814 47.109C123.969 47.3097 124.082 47.539 124.148 47.7837C124.214 48.0284 124.231 48.2838 124.198 48.5351C124.165 48.7864 124.083 49.0287 123.956 49.2481C123.785 49.5544 123.534 49.8076 123.228 49.9795C122.923 50.1515 122.576 50.2355 122.226 50.2222C121.909 50.2167 121.599 50.1297 121.325 49.9697C119.8 49.0813 118.09 48.5585 116.329 48.4423H115.872C112.914 48.4027 110.056 49.5167 107.902 51.5487C105.749 53.5806 104.469 56.3714 104.333 59.3309C104.198 62.2905 105.217 65.1869 107.175 67.4079C109.133 69.6289 111.878 71.0004 114.827 71.2324H115.272C118.218 71.3194 121.083 70.2566 123.261 68.2685C125.439 66.2803 126.761 63.5224 126.947 60.577C126.993 59.8591 126.973 59.1385 126.887 58.4243C126.84 57.9128 126.996 57.4035 127.322 57.0071C127.649 56.6107 128.118 56.3593 128.628 56.3076C128.704 56.3016 128.78 56.3016 128.856 56.3076C129.309 56.319 129.743 56.4889 130.083 56.7878C130.423 57.0867 130.648 57.4955 130.718 57.9432C130.836 58.9006 130.864 59.8669 130.802 60.8296C130.552 64.7702 128.785 68.46 125.872 71.1224C122.96 73.7849 119.13 75.2126 115.188 75.105H115.164Z" fill="white"/>
</svg>
