<svg width="184" height="81" viewBox="0 0 184 81" fill="none" xmlns="http://www.w3.org/2000/svg">
<g clip-path="url(#clip0_111_5295)">
<path d="M28.0282 0.882812V5.39102H17.4471V30.7394H11.6863V5.39102H1.10513V0.882812H28.0282Z" fill="#0E325C"/>
<path d="M51.6829 0.882812V5.39102H38.1626V13.2362H51.0951V17.7444H38.1626V26.2312H51.9769V30.7394H32.4018V0.882812H51.6829Z" fill="#0E325C"/>
<path d="M66.0086 0.482422C68.9452 0.489692 71.8324 1.23868 74.403 2.66002V7.78618C71.311 5.91856 68.5677 4.9867 66.1732 4.99063C64.9783 4.92386 63.7908 5.21699 62.7638 5.83223C62.3836 6.07101 62.0713 6.40389 61.8571 6.79874C61.643 7.19359 61.5341 7.63708 61.5411 8.08634C61.5411 9.21634 62.2994 10.2522 63.8219 11.2056C64.249 11.4959 65.893 12.2944 68.7539 13.6009C71.1993 14.7545 72.9628 16.0375 74.0444 17.45C75.1429 18.9131 75.7147 20.7052 75.6669 22.535C75.7078 23.7121 75.4803 24.883 75.0015 25.9589C74.5228 27.0348 73.8055 27.9873 72.904 28.744C71.066 30.3135 68.6794 31.0982 65.7441 31.0982C64.0819 31.1332 62.4238 30.921 60.8239 30.4685C59.2021 29.9357 57.6507 29.2085 56.2035 28.3026V22.6173C59.3896 25.2658 62.3915 26.59 65.2092 26.59C66.4153 26.6468 67.6091 26.3259 68.6245 25.6719C69.0312 25.4105 69.3645 25.0495 69.5928 24.6231C69.8212 24.1967 69.9371 23.7191 69.9296 23.2353C69.9296 21.8522 69.1712 20.7281 67.6664 19.8571C66.4162 19.1744 64.7997 18.3563 62.8167 17.4029C60.802 16.571 59.0028 15.291 57.5555 13.6598C56.4011 12.2686 55.7763 10.5129 55.792 8.7043C55.7518 7.55441 55.9845 6.41136 56.4709 5.3689C56.9573 4.32643 57.6835 3.41424 58.5901 2.7071C60.4751 1.22398 62.948 0.482422 66.0086 0.482422Z" fill="#0E325C"/>
<path d="M104.577 0.882812V5.39102H93.9957V30.7394H88.2349V5.39102H77.6537V0.882812H104.577Z" fill="#0E325C"/>
<path d="M53.4289 45.8936C56.364 45.9031 59.2492 46.6541 61.8173 48.077V53.2032C58.7331 51.3356 55.9899 50.4037 53.5876 50.4077C52.3942 50.338 51.2077 50.6314 50.184 51.2493C49.8019 51.4865 49.4879 51.8188 49.2725 52.2139C49.0572 52.609 48.9479 53.0533 48.9554 53.5034C48.9554 54.6275 49.7137 55.6692 51.2421 56.6226C51.6653 56.913 53.3074 57.7114 56.1682 59.018C58.6175 60.1715 60.3811 61.4545 61.4588 62.867C62.558 64.3297 63.1299 66.1221 63.0812 67.952C63.1204 69.1288 62.8921 70.2992 62.4134 71.3748C61.9348 72.4504 61.2185 73.4031 60.3183 74.1611C58.4725 75.7305 56.0839 76.5152 53.1526 76.5152C51.4906 76.5466 49.833 76.3344 48.2323 75.8855C46.6103 75.3509 45.0589 74.6216 43.6119 73.7138V68.0344C46.798 70.6828 49.8019 72.007 52.6235 72.007C53.8278 72.0638 55.0197 71.7428 56.033 71.0889C56.4396 70.8275 56.7729 70.4665 57.0013 70.0401C57.2297 69.6138 57.3456 69.1361 57.338 68.6523C57.338 67.2712 56.5836 66.1452 55.0748 65.2741C53.8247 64.5914 52.2101 63.7714 50.231 62.814C48.2139 61.9894 46.4136 60.7106 44.9698 59.0768C43.81 57.6864 43.1846 55.9268 43.2063 54.1154C43.1724 52.9697 43.4099 51.8322 43.8993 50.796C44.3887 49.7598 45.1161 48.8543 46.0221 48.1535C47.909 46.641 50.3662 45.8936 53.4289 45.8936Z" fill="#0E325C"/>
<path d="M83.7849 45.8942C85.4598 45.8968 87.1287 46.0943 88.758 46.4827C90.5756 46.9425 92.3363 47.6038 94.0075 48.4543V53.8806C92.4019 52.9283 90.6942 52.1604 88.9168 51.5912C87.3339 51.1169 85.6899 50.8789 84.0377 50.885C82.0453 50.8564 80.0754 51.3086 78.2945 52.2033C76.6405 53.032 75.2592 54.3189 74.3148 55.9111C73.369 57.5143 72.8791 59.346 72.8981 61.2079C72.8696 63.0918 73.3553 64.9477 74.303 66.5754C75.2442 68.1563 76.6251 69.4284 78.2768 70.2361C80.0671 71.1198 82.0419 71.5636 84.0377 71.5309C85.6323 71.5401 87.2187 71.3019 88.7404 70.8247C90.6884 70.1487 92.5712 69.2977 94.366 68.2822V73.7085C92.673 74.6258 90.8827 75.3503 89.0284 75.8684C87.1708 76.3248 85.2624 76.5404 83.3499 76.5099C80.4256 76.5667 77.5299 75.9251 74.9026 74.6384C72.4775 73.4301 70.451 71.5483 69.0654 69.2179C67.654 66.883 66.9173 64.2019 66.9374 61.4728C66.8945 58.6189 67.6543 55.8106 69.13 53.3686C70.5723 50.9906 72.6599 49.072 75.1495 47.8364C77.8327 46.5106 80.7931 45.8447 83.7849 45.8942Z" fill="#0E325C"/>
<path d="M147.013 46.2822C149.819 46.2822 152.102 47.0669 153.861 48.6364C154.729 49.3809 155.419 50.31 155.882 51.3557C156.344 52.4014 156.568 53.5374 156.536 54.6807C156.57 56.2593 156.11 57.809 155.219 59.1124C154.236 60.461 152.885 61.4971 151.328 62.0962C152.3 62.6258 153.162 63.337 153.867 64.1914C154.929 65.586 155.851 67.0823 156.618 68.6585C158.441 72.2799 159.793 74.7734 160.674 76.1388H154.226C153.576 75.1218 152.978 74.0729 152.433 72.996C151.339 70.7925 150.128 68.6491 148.806 66.575C148.218 65.6586 147.465 64.8602 146.584 64.2209C145.852 63.7539 145 63.5124 144.133 63.5264H142.04V76.1388H136.273V46.2822H147.013ZM145.708 59.0182C146.982 59.0852 148.237 58.6833 149.235 57.8882C149.666 57.499 150.005 57.0188 150.227 56.4824C150.45 55.946 150.551 55.3668 150.523 54.7866C150.565 54.2112 150.472 53.6338 150.25 53.1011C150.028 52.5684 149.685 52.0954 149.247 51.7203C148.179 50.9797 146.893 50.6211 145.596 50.7022H142.011V59.0182H145.708Z" fill="#0E325C"/>
<path d="M183.706 46.2822V50.7904H170.186V58.6356H183.118V63.1438H170.186V71.6306H184V76.1388H164.425V46.2822H183.706Z" fill="#0E325C"/>
<path d="M26.6645 45.041H8.75295C3.91883 45.041 0 48.9645 0 53.8044V71.7371C0 76.577 3.91883 80.5004 8.75295 80.5004H26.6645C31.4986 80.5004 35.4174 76.577 35.4174 71.7371V53.8044C35.4174 48.9645 31.4986 45.041 26.6645 45.041Z" fill="#326CE2"/>
<path d="M16.2009 50.1844C17.9751 50.1228 19.7105 50.7132 21.08 51.8441C21.7084 52.3556 22.2112 53.0047 22.5496 53.7414C22.8879 54.4781 23.0529 55.2828 23.0316 56.0933C23.0252 57.3513 22.6128 58.5734 21.8559 59.5775C20.8684 60.8453 19.6619 61.9257 18.2936 62.7674L21.8206 66.8401C22.9727 65.6346 23.936 64.2615 24.6775 62.7674H29.3274C28.2591 65.4675 26.6599 67.9252 24.6246 69.9946L29.7741 75.8094H23.4019L21.0506 73.1139C19.9295 74.0788 18.6639 74.8613 17.3001 75.4327C15.9182 75.9345 14.455 76.174 12.9854 76.139C11.0727 76.1914 9.21 75.5235 7.76537 74.2674C7.09381 73.7089 6.55491 73.0077 6.18784 72.2147C5.82077 71.4216 5.63474 70.5567 5.64325 69.6827C5.63797 68.1925 6.18221 66.7528 7.17164 65.6395C8.40729 64.2782 9.88165 63.1551 11.5217 62.326C10.7479 61.391 10.0906 60.3653 9.56416 59.2715C9.15645 58.4021 8.94377 57.4539 8.94105 56.4935C8.91466 55.6292 9.08452 54.7702 9.43785 53.9811C9.79118 53.1921 10.3188 52.4936 10.9809 51.9383C12.4488 50.7354 14.3054 50.1116 16.2009 50.1844ZM10.5752 69.3414C10.5712 69.7351 10.6539 70.1249 10.8174 70.483C10.981 70.8411 11.2215 71.1586 11.5217 71.413C12.1349 71.9673 12.9353 72.2681 13.7613 72.2546C15.2309 72.2546 16.7828 71.5464 18.417 70.13L14.02 65.2216C13.0975 65.783 12.2485 66.4571 11.4923 67.2285C10.9244 67.787 10.5956 68.5446 10.5752 69.3414ZM13.5791 56.1169C13.6257 56.818 13.8614 57.4932 14.261 58.0708C14.6886 58.7848 15.2195 59.4313 15.8364 59.9895C16.6137 59.5276 17.3272 58.9657 17.9585 58.318C18.47 57.7855 18.7528 57.0735 18.7462 56.3347C18.7566 56.0049 18.6964 55.6768 18.5697 55.3722C18.4429 55.0677 18.2526 54.7939 18.0114 54.5691C17.758 54.3347 17.4609 54.1527 17.1371 54.0335C16.8133 53.9144 16.4692 53.8603 16.1245 53.8745C15.4813 53.8664 14.8562 54.0875 14.3609 54.4984C14.1098 54.6877 13.9077 54.9345 13.7716 55.2182C13.6356 55.5019 13.5696 55.8141 13.5791 56.1287V56.1169Z" fill="white"/>
<path fill-rule="evenodd" clip-rule="evenodd" d="M127.891 54.039C128.231 53.6675 128.411 53.1758 128.389 52.6719C128.368 52.1681 128.147 51.6934 127.776 51.3524C127.405 51.0113 126.914 50.8318 126.411 50.8533C125.907 50.8748 125.433 51.0956 125.092 51.4671L115.893 61.5135L110.643 56.9817C110.454 56.819 110.235 56.6952 109.998 56.6174C109.761 56.5395 109.511 56.5092 109.263 56.528C109.014 56.5469 108.771 56.6146 108.549 56.7273C108.326 56.84 108.128 56.9954 107.966 57.1848C107.803 57.3741 107.68 57.5937 107.602 57.8309C107.524 58.0681 107.494 58.3183 107.513 58.5672C107.531 58.8162 107.599 59.0589 107.712 59.2817C107.824 59.5045 107.979 59.7029 108.169 59.8656L114.811 65.5685C115.186 65.8893 115.671 66.052 116.163 66.0223C116.655 65.9927 117.117 65.773 117.451 65.4096L127.891 54.039Z" fill="#027D08"/>
<path fill-rule="evenodd" clip-rule="evenodd" d="M115.176 75.586H114.588C110.706 75.1833 107.125 73.309 104.579 70.3474C102.033 67.3858 100.715 63.5614 100.896 59.6581C101.076 55.7549 102.741 52.0687 105.549 49.3552C108.357 46.6417 112.096 45.1065 115.999 45.0645L116.586 45.0939C118.937 45.2436 121.219 45.941 123.253 47.1302C123.627 47.3434 123.92 47.6763 124.084 48.0756C124.247 48.4749 124.273 48.9175 124.156 49.3329C124.039 49.7483 123.786 50.1125 123.438 50.3672C123.09 50.6218 122.666 50.7524 122.236 50.738C121.915 50.7314 121.602 50.6444 121.324 50.4849C119.802 49.5942 118.093 49.0703 116.334 48.9547C116.181 48.9547 116.034 48.9547 115.881 48.9547C112.986 49.0077 110.22 50.1621 108.145 52.1833C106.07 54.2046 104.841 56.9411 104.709 59.8367C104.576 62.7323 105.55 65.5698 107.432 67.7726C109.314 69.9753 111.963 71.3781 114.841 71.6958H115.287C116.926 71.7376 118.554 71.4252 120.061 70.7801C121.568 70.135 122.918 69.1722 124.02 67.9573C125.122 66.7425 125.949 65.3042 126.446 63.7403C126.942 62.1765 127.096 60.5239 126.897 58.8951C126.872 58.6397 126.898 58.3819 126.973 58.1366C127.049 57.8913 127.172 57.6635 127.336 57.4663C127.5 57.2692 127.702 57.1067 127.929 56.9882C128.157 56.8698 128.405 56.7978 128.661 56.7764H128.89C129.343 56.7891 129.776 56.9603 130.116 57.2604C130.455 57.5604 130.679 57.9703 130.748 58.4184C131.013 60.5999 130.807 62.8132 130.141 64.9075C129.476 67.0019 128.368 68.9283 126.893 70.5556C125.418 72.1829 123.61 73.4729 121.592 74.3379C119.574 75.2029 117.394 75.6226 115.199 75.5684L115.176 75.586Z" fill="#027D08"/>
</g>
<defs>
<clipPath id="clip0_111_5295">
<rect width="184" height="80" fill="white" transform="translate(0 0.5)"/>
</clipPath>
</defs>
</svg>
